<svg width="36" height="36" viewBox="0 0 36 36" fill="none" xmlns="http://www.w3.org/2000/svg">
<path fill-rule="evenodd" clip-rule="evenodd" d="M2.50488 26.4449V6.33008H3.7105V26.4449H2.50488Z" fill="#676767"/>
<path fill-rule="evenodd" clip-rule="evenodd" d="M9.05518 26.4449V6.33008H10.2608V26.4449H9.05518Z" fill="#676767"/>
<path fill-rule="evenodd" clip-rule="evenodd" d="M5.99268 26.4449V6.33008H7.99268V26.4449H5.99268Z" fill="#676767"/>
<path fill-rule="evenodd" clip-rule="evenodd" d="M20.3325 26.4449V6.33008H21.5381V26.4449H20.3325Z" fill="#676767"/>
<path fill-rule="evenodd" clip-rule="evenodd" d="M11.8657 26.4449V6.33008H13.0657V26.4449H11.8657Z" fill="#676767"/>
<path fill-rule="evenodd" clip-rule="evenodd" d="M23.1426 26.4449V6.33008H24.3426V26.4449H23.1426Z" fill="#676767"/>
<path fill-rule="evenodd" clip-rule="evenodd" d="M25.0112 26.4449V6.33008H26.2169V26.4449H25.0112Z" fill="#676767"/>
<path fill-rule="evenodd" clip-rule="evenodd" d="M29.6411 26.4449V6.33008H30.8467V26.4449H29.6411Z" fill="#676767"/>
<path fill-rule="evenodd" clip-rule="evenodd" d="M31.5127 26.4449V6.33008H32.7183V26.4449H31.5127Z" fill="#676767"/>
<path fill-rule="evenodd" clip-rule="evenodd" d="M15.2085 25.9805V6.33008H17.2085V25.9805H15.2085Z" fill="#676767"/>
<path fill-rule="evenodd" clip-rule="evenodd" d="M26.8833 25.9805V6.33008H28.0889V25.9805H26.8833Z" fill="#676767"/>
<path fill-rule="evenodd" clip-rule="evenodd" d="M34.741 5H1V27.8633H34.741V5ZM0 4V28.8633H35.741V4H0Z" fill="#676767"/>
<path d="M20.6272 28.7379C23.3956 30.1586 26.7914 29.066 28.2121 26.2976C29.6327 23.5293 28.5401 20.1334 25.7718 18.7128C23.0034 17.2922 19.6076 18.3847 18.1869 21.1531C16.7663 23.9215 17.8589 27.3173 20.6272 28.7379Z" fill="#179A9C"/>
<path fill-rule="evenodd" clip-rule="evenodd" d="M25.0869 20.0474C23.0556 19.005 20.5639 19.8066 19.5215 21.8379C18.4791 23.8693 19.2808 26.361 21.3121 27.4034C23.3434 28.4458 25.8351 27.6441 26.8775 25.6128C27.9199 23.5815 27.1182 21.0898 25.0869 20.0474ZM16.8524 20.4683C18.6513 16.9629 22.9512 15.5794 26.4566 17.3783C29.962 19.1771 31.3454 23.4771 29.5466 26.9825C27.7477 30.4879 23.4478 31.8713 19.9424 30.0725C16.437 28.2736 15.0536 23.9737 16.8524 20.4683Z" fill="#179A9C"/>
<path fill-rule="evenodd" clip-rule="evenodd" d="M30.118 35.0387L25.2288 29.2771L27.5162 27.336L32.4054 33.0977L30.118 35.0387Z" fill="#179A9C"/>
</svg>
