<svg width="14" height="17" viewBox="0 0 14 17" fill="none" xmlns="http://www.w3.org/2000/svg">
<path d="M11.5062 1.00134H4.7508C3.92616 1.00134 3.25766 1.66984 3.25766 2.49448V11.951C3.25766 12.7757 3.92616 13.4442 4.7508 13.4442H11.5062C12.3309 13.4442 12.9994 12.7757 12.9994 11.951V2.49448C12.9994 1.66984 12.3309 1.00134 11.5062 1.00134Z" fill="#AEDCDD"/>
<path fill-rule="evenodd" clip-rule="evenodd" d="M4.7508 1.60229C4.25806 1.60229 3.85861 2.00174 3.85861 2.49448V11.951C3.85861 12.4438 4.25806 12.8432 4.7508 12.8432H11.5062C11.999 12.8432 12.3984 12.4438 12.3984 11.951V2.49448C12.3984 2.00174 11.999 1.60229 11.5062 1.60229H4.7508ZM2.65671 2.49448C2.65671 1.33795 3.59426 0.400391 4.7508 0.400391H11.5062C12.6628 0.400391 13.6003 1.33795 13.6003 2.49448V11.951C13.6003 13.1076 12.6628 14.0451 11.5062 14.0451H4.7508C3.59426 14.0451 2.65671 13.1076 2.65671 11.951V2.49448Z" fill="#179A9C"/>
<path d="M9.24797 3.34844H2.49253C1.66789 3.34844 0.999388 4.01695 0.999388 4.84158V14.2981C0.999388 15.1228 1.66789 15.7913 2.49253 15.7913H9.24797C10.0726 15.7913 10.7411 15.1228 10.7411 14.2981V4.84158C10.7411 4.01695 10.0726 3.34844 9.24797 3.34844Z" fill="#AEDCDD"/>
<path fill-rule="evenodd" clip-rule="evenodd" d="M2.49253 3.94939C1.99978 3.94939 1.60034 4.34884 1.60034 4.84158V14.2981C1.60034 14.7909 1.99979 15.1903 2.49253 15.1903H9.24797C9.74071 15.1903 10.1402 14.7909 10.1402 14.2981V4.84158C10.1402 4.34884 9.74071 3.94939 9.24797 3.94939H2.49253ZM0.398438 4.84158C0.398438 3.68505 1.33599 2.74749 2.49253 2.74749H9.24797C10.4045 2.74749 11.3421 3.68505 11.3421 4.84158V14.2981C11.3421 15.4547 10.4045 16.3922 9.24797 16.3922H2.49253C1.33599 16.3922 0.398438 15.4547 0.398438 14.2981V4.84158Z" fill="#179A9C"/>
</svg>
