<svg width="38" height="37" viewBox="0 0 38 37" fill="none" xmlns="http://www.w3.org/2000/svg">
<rect x="0.078125" y="0.130859" width="36.9474" height="35.9211" rx="4" fill="#AEDCDC"/>
<path d="M32.4455 29.2731H32.4366C31.4442 29.2731 30.6804 28.3402 30.8492 27.3242C31.3665 24.2253 33.6867 24.1168 33.6867 22.1933C33.6867 21.6599 33.5978 20.4637 32.3589 20.4637C31.6884 20.4637 31.2954 20.9094 31.0668 21.3828C30.7581 22.0247 30.0454 22.3387 29.366 22.2164C28.3358 22.027 27.7031 20.8794 28.1405 19.891C28.7666 18.4779 30.0454 17 32.5765 17C36.6862 17 37.2368 20.3459 37.2368 21.9208C37.2368 25.6408 34.5725 25.7794 34.0219 27.9223C33.8221 28.6935 33.2137 29.2731 32.4455 29.2731ZM34.5792 33.2148C34.597 34.4433 33.7466 35.4986 32.5277 35.4732C31.3065 35.5009 30.4584 34.4433 30.4739 33.2148C30.4584 32.0141 31.311 30.8964 32.5277 30.9311C33.7422 30.8964 34.597 32.0141 34.5792 33.2148Z" fill="#179A9C"/>
<rect x="7.23828" y="7.31641" width="24.6316" height="4.10526" rx="2" fill="#179A9C"/>
<path d="M4 16.6219C5.52 18.2219 7.8 19.0219 10.08 16.6219H16.92C19.2 19.0219 21.48 18.2219 23 16.6219M13.5 13.4219V32.6219M8.56 33.4219H18.44" stroke="#179A9C" stroke-width="2" stroke-linecap="round" stroke-linejoin="round"/>
<path d="M20.1852 18.4219L17.3704 25.3784C18.0741 26.7697 22.2963 26.7697 23 25.3784L20.1852 18.4219ZM6.81481 18.4219L4 25.3784C4.7037 26.7697 8.92593 26.7697 9.62963 25.3784L6.81481 18.4219Z" stroke="#179A9C" stroke-width="2" stroke-linecap="round" stroke-linejoin="round"/>
</svg>
