<svg width="42" height="42" viewBox="0 0 42 42" fill="none" xmlns="http://www.w3.org/2000/svg">
<path d="M4.56543 8C5.98236 8 7.13164 9.14855 7.13184 10.5654V15.1836H32.7891V31.6045H4C2.89543 31.6045 2 30.7091 2 29.6045V10.5654C2.00019 9.14867 3.14867 8.00019 4.56543 8Z" fill="#179A9C"/>
<rect x="7.13281" y="10.0527" width="31.8158" height="18.4737" fill="#AEDCDC"/>
<rect x="12.2617" y="15.1836" width="17.4474" height="3.07895" rx="1.53947" fill="#179A9C"/>
<rect x="12.2617" y="21.3418" width="8.21053" height="3.07895" rx="1.53947" fill="#179A9C"/>
<path d="M35.4455 29.2731H35.4366C34.4442 29.2731 33.6804 28.3402 33.8492 27.3242C34.3665 24.2253 36.6867 24.1168 36.6867 22.1933C36.6867 21.6599 36.5978 20.4637 35.3589 20.4637C34.6884 20.4637 34.2954 20.9094 34.0668 21.3828C33.7581 22.0247 33.0454 22.3387 32.366 22.2164C31.3358 22.027 30.7031 20.8794 31.1405 19.891C31.7666 18.4779 33.0454 17 35.5765 17C39.6862 17 40.2368 20.3459 40.2368 21.9208C40.2368 25.6408 37.5725 25.7794 37.0219 27.9223C36.8221 28.6935 36.2137 29.2731 35.4455 29.2731ZM37.5792 33.2148C37.597 34.4433 36.7466 35.4986 35.5277 35.4732C34.3065 35.5009 33.4584 34.4433 33.4739 33.2148C33.4584 32.0141 34.311 30.8964 35.5277 30.9311C36.7422 30.8964 37.597 32.0141 37.5792 33.2148Z" fill="#179A9C"/>
</svg>
