<svg width="138" height="162" viewBox="0 0 138 162" fill="none" xmlns="http://www.w3.org/2000/svg">
<path d="M130.767 162L98.2167 129.45C95.6333 131.517 92.6625 133.153 89.3042 134.358C85.9458 135.564 82.3722 136.167 78.5833 136.167C69.1972 136.167 61.2543 132.915 54.7547 126.412C48.255 119.909 45.0034 111.966 45 102.583C44.9966 93.2007 48.2481 85.2578 54.7547 78.7547C61.2612 72.2516 69.2041 69 78.5833 69C87.9626 69 95.9072 72.2516 102.417 78.7547C108.927 85.2578 112.177 93.2007 112.167 102.583C112.167 106.372 111.564 109.946 110.358 113.304C109.153 116.662 107.517 119.633 105.45 122.217L138 154.767L130.767 162ZM78.5833 125.833C85.0417 125.833 90.5321 123.574 95.0547 119.055C99.5772 114.536 101.837 109.045 101.833 102.583C101.83 96.1216 99.5703 90.6328 95.0547 86.1172C90.539 81.6015 85.0486 79.3402 78.5833 79.3333C72.1181 79.3264 66.6294 81.5877 62.1172 86.1172C57.6049 90.6466 55.3437 96.1353 55.3333 102.583C55.323 109.031 57.5843 114.522 62.1172 119.055C66.6501 123.588 72.1388 125.847 78.5833 125.833Z" fill="#179A9C"/>
<path d="M105 59.9167V9C105 7.89543 104.105 7 103 7H9C7.89543 7 7 7.89543 7 9V132C7 133.105 7.89543 134 9 134H42" stroke="#179A9C" stroke-width="14"/>
<path d="M30 27H82" stroke="#179A9C" stroke-width="5" stroke-linecap="round"/>
<path d="M30 49H82" stroke="#179A9C" stroke-width="5" stroke-linecap="round"/>
<path d="M30 70H53" stroke="#179A9C" stroke-width="5" stroke-linecap="round"/>
</svg>
