<svg width="42" height="42" viewBox="0 0 42 42" fill="none" xmlns="http://www.w3.org/2000/svg">
<path d="M6.07812 17.5113L17.6066 5.88854C19.1713 4.31106 21.7218 4.31105 23.2865 5.88854L34.815 17.5113V31.8675C34.815 34.0766 33.0241 35.8675 30.815 35.8675H10.0781C7.86899 35.8675 6.07812 34.0766 6.07812 31.8675V17.5113Z" fill="#AEDCDC"/>
<path d="M3 19.4474L17.6189 4.82843C19.181 3.26633 21.7137 3.26633 23.2758 4.82843L37.8947 19.4474" stroke="#179A9C" stroke-width="3" stroke-linecap="round"/>
<path d="M40.9741 39.0359C40.6135 39.4039 40.0224 39.4087 39.6559 39.0465L35.8224 35.2584C35.4589 34.8991 34.8865 34.881 34.4418 35.1328C34.1704 35.2865 33.8809 35.4202 33.5732 35.5339C32.9656 35.7583 32.3182 35.8731 31.6309 35.8783C29.9282 35.8913 28.4827 35.3095 27.2946 34.1329C26.1065 32.9563 25.5056 31.5128 25.492 29.8022C25.4783 28.0917 26.0571 26.6391 27.2284 25.4446C28.3997 24.25 29.8361 23.6462 31.5375 23.6333C33.239 23.6203 34.6847 24.2021 35.8747 25.3787C37.0647 26.5553 37.6653 27.9988 37.6764 29.7094C37.6817 30.4001 37.5773 31.0525 37.3633 31.6664C37.2538 31.9803 37.1238 32.276 36.9732 32.5533C36.7308 32.9997 36.758 33.5675 37.1193 33.9245L40.9635 37.7232C41.3279 38.0833 41.3326 38.6701 40.9741 39.0359ZM31.6165 33.9945C32.7881 33.9856 33.7809 33.566 34.5951 32.7359C35.4092 31.9058 35.8115 30.9017 35.8019 29.7237C35.7923 28.5456 35.3748 27.5481 34.5493 26.7311C33.7239 25.9141 32.7247 25.5094 31.5519 25.5171C30.3791 25.5248 29.3865 25.9446 28.5743 26.7766C27.762 27.6086 27.3594 28.6124 27.3665 29.7879C27.3736 30.9635 27.7914 31.9613 28.62 32.7814C29.4486 33.6016 30.4474 34.0059 31.6165 33.9945Z" fill="#179A9C"/>
<path d="M20.3164 23.9219C22.2494 23.9219 23.8164 25.4889 23.8164 27.4219V35.3447H16.8164V27.4219C16.8164 25.4889 18.3834 23.9219 20.3164 23.9219Z" fill="#179A9C" stroke="#179A9C"/>
<rect x="10.3164" y="16.4219" width="6" height="6" rx="1" fill="#179A9C"/>
<rect x="24.3164" y="16.4219" width="6" height="6" rx="1" fill="#179A9C"/>
</svg>
