<svg width="27" height="27" viewBox="0 0 27 27" fill="none" xmlns="http://www.w3.org/2000/svg">
<path d="M22.467 3.17454C12.5837 -1.50705 10.5463 6.85911 10.7631 11.6274L1.66016 21.3797V25.281H5.56147L15.3148 16.1779C27.6689 16.8281 26.3684 6.42529 22.467 3.17454Z" fill="#AD3A10" fill-opacity="0.5"/>
<path d="M18.0096 0.578125C16.7047 0.577826 15.4177 0.883215 14.252 1.46982C13.0863 2.05643 12.0742 2.90793 11.2968 3.95611C10.5195 5.00429 9.99842 6.21999 9.77547 7.50579C9.55252 8.79159 9.63386 10.1117 10.013 11.3604L0.367188 21.0062V26.5775H5.93849L15.5843 16.9318C16.7337 17.2807 17.9449 17.3777 19.1352 17.2161C20.3256 17.0546 21.4671 16.6384 22.482 15.9958C23.4969 15.3532 24.3614 14.4994 25.0165 13.4925C25.6716 12.4856 26.1019 11.3493 26.2781 10.1611C26.4543 8.97282 26.3723 7.76055 26.0377 6.60687C25.703 5.45319 25.1236 4.38521 24.3388 3.47572C23.5541 2.56623 22.5825 1.83661 21.4903 1.33657C20.3981 0.83654 19.2109 0.577847 18.0096 0.578125ZM18.0096 15.4349C17.3703 15.4348 16.7346 15.3403 16.1228 15.1545L15.0578 14.8314L14.2713 15.6179L11.3176 18.5716L10.0371 17.292L8.72414 18.605L10.0046 19.8855L8.53193 21.3581L7.25146 20.0777L5.93849 21.3906L7.21896 22.6711L5.16965 24.7204H2.22429V21.7751L11.3259 12.6734L12.1133 11.8869L11.7902 10.8219C11.3933 9.51356 11.4191 8.11339 11.8639 6.82055C12.3087 5.52771 13.1498 4.40805 14.2676 3.62082C15.3854 2.8336 16.723 2.4189 18.0901 2.43572C19.4572 2.45254 20.7842 2.90002 21.8824 3.71451C22.9805 4.52899 23.7938 5.66901 24.2066 6.9724C24.6195 8.27579 24.6108 9.67617 24.1818 10.9743C23.7529 12.2725 22.9255 13.4024 21.8174 14.2032C20.7093 15.004 19.3768 15.435 18.0096 15.4349Z" fill="#AD3A10"/>
<path d="M18.9352 9.86459C19.9609 9.86459 20.7923 9.03314 20.7923 8.00749C20.7923 6.98184 19.9609 6.15039 18.9352 6.15039C17.9096 6.15039 17.0781 6.98184 17.0781 8.00749C17.0781 9.03314 17.9096 9.86459 18.9352 9.86459Z" fill="#AD3A10"/>
</svg>
