<svg width="30" height="23" viewBox="0 0 30 23" fill="none" xmlns="http://www.w3.org/2000/svg">
<path fill-rule="evenodd" clip-rule="evenodd" d="M14.6644 5.41452L6.30781 11.4338C5.36958 12.1096 4.17344 12.4276 2.94176 12.2277C1.71006 12.0277 0.676061 11.3476 0 10.4098L3.66607 7.76908L14.0494 0.289991L14.0519 0.288171L14.0541 0.286514L14.0563 0.284854L14.0585 0.283197L14.0607 0.281541L14.0629 0.279885L14.0651 0.278224C14.1096 0.246212 14.1529 0.215557 14.2136 0.178794C14.2795 0.138909 14.3657 0.0918706 14.4398 0.0621507C14.5139 0.0324308 14.5759 0.0200548 14.6422 0.0165193C14.7086 0.0129839 14.7794 0.0181759 14.8851 0.0645235C14.9909 0.110761 15.1316 0.197961 15.2271 0.259583C15.3151 0.316426 15.3646 0.35156 15.3961 0.374237L15.3978 0.375341L15.3994 0.376445L15.4008 0.377549L15.4022 0.378654L15.4036 0.379758L15.4049 0.380866L15.4063 0.38197L15.4077 0.383075L15.4091 0.384179L25.662 7.76938L29.3281 10.4101C28.652 11.3479 27.618 12.028 26.3863 12.228C25.1546 12.4279 23.9585 12.1098 23.0203 11.434L14.6644 5.41452Z" fill="white"/>
<path fill-rule="evenodd" clip-rule="evenodd" d="M10.425 16.0494L14.6627 13.0216L18.9003 16.0494C19.7441 16.6523 20.8181 16.9335 21.9221 16.7499C23.0261 16.5663 23.9511 15.9528 24.5543 15.1093L21.2571 12.7535L15.8539 8.89293L15.8514 8.891L15.8489 8.88906L15.8465 8.8874L15.844 8.88575L15.8415 8.88409L15.839 8.88243L15.8365 8.88077C15.7876 8.84589 15.7464 8.81692 15.6477 8.75403C15.5424 8.68693 15.3716 8.58126 15.2092 8.50718C15.0469 8.4331 14.8929 8.39064 14.7193 8.37841C14.5456 8.36615 14.3523 8.38416 14.1355 8.47898C13.9289 8.56932 13.7009 8.72952 13.5346 8.84821L13.5265 8.85404L13.5184 8.85976L13.5105 8.86542L13.5027 8.871L13.495 8.87652L13.4874 8.88196L13.4799 8.88732L13.4725 8.8926L13.4652 8.89782L13.458 8.90298L13.4509 8.90803L13.4439 8.91304L13.437 8.91798L13.4301 8.92284L13.4168 8.93237L13.4103 8.93704L13.4039 8.94163L13.3975 8.94618L13.3913 8.95063L13.3851 8.95505L13.379 8.95936L13.373 8.96364L13.3672 8.96787L13.3613 8.97201L13.3556 8.9761L13.35 8.98013L13.3444 8.98408L13.3389 8.988L13.3336 8.99184L13.3283 8.99565L13.323 8.99938L13.3179 9.00305L13.3128 9.00667L13.3078 9.01026L13.3029 9.01377L13.2981 9.01725L13.2933 9.02064L13.2886 9.02399L13.284 9.0273L13.2794 9.03056L13.2749 9.03376L13.2705 9.03692L13.2662 9.04001L13.2619 9.04307L13.2577 9.04608L13.2535 9.04904L13.2495 9.05194L13.2454 9.05481L13.2415 9.05763L13.2376 9.06042L13.2338 9.06318L13.23 9.06594L13.2263 9.06871L13.2226 9.07147L13.2191 9.07395L13.2155 9.07644L13.212 9.07893L13.2086 9.08141L13.2052 9.0839L13.2019 9.08638L13.1987 9.08859L13.1954 9.0908L13.1923 9.09301L13.1892 9.09522L13.1861 9.09743L13.1831 9.09964L13.1801 9.10185L13.1772 9.10406L13.1743 9.10599L13.1714 9.10793L8.06831 12.7541L4.77115 15.1099C5.37432 15.9535 6.29931 16.5669 7.40331 16.7505C8.50738 16.9341 9.58119 16.6523 10.425 16.0494Z" fill="white"/>
<path fill-rule="evenodd" clip-rule="evenodd" d="M4.63461 5.95705C4.69188 5.91512 5.52138 5.30796 7.12311 4.13557C8.72484 2.9632 9.54797 2.34138 9.59251 2.27012C9.63705 2.19888 9.65382 1.83918 9.6428 1.19103C9.63179 0.542886 9.6256 0.182503 9.62423 0.109879C9.62294 0.037236 9.5705 0.00143702 9.4669 0.00248661C9.36337 0.00359144 8.62488 0.0034076 7.25143 0.0019345C5.87797 0.000645529 5.15784 0 5.091 0C5.02419 0 4.99035 0.0524523 4.98949 0.157356C4.98856 0.262259 4.98857 0.364882 4.98951 0.465219C4.99043 0.565574 4.9983 1.38128 5.01311 2.91233C5.02796 4.44338 4.94151 5.38622 4.75376 5.74083" fill="white"/>
<path fill-rule="evenodd" clip-rule="evenodd" d="M10.0345 18.3545C11.2097 17.1797 12.8332 16.4531 14.6265 16.4531C16.4197 16.4531 18.0432 17.1797 19.2184 18.3545L14.6265 22.9446L10.0345 18.3545Z" fill="white"/>
</svg>
