<svg width="138" height="129" viewBox="0 0 138 129" fill="none" xmlns="http://www.w3.org/2000/svg">
<path d="M31 44.557V85C31 87.7614 33.2386 90 36 90H102C104.761 90 107 87.7614 107 85V44.6047C107 43.095 106.318 41.6661 105.144 40.7168L71.5912 13.5833C69.7348 12.082 67.0759 12.1027 65.243 13.6327L32.7958 40.7186C31.6578 41.6686 31 43.0746 31 44.557Z" fill="#A8D9DA" style="fill:#A8D9DA;fill:color(display-p3 0.6588 0.8510 0.8549);fill-opacity:1;"/>
<path d="M49.9083 59.8574C54.0183 57.8364 58.8991 59.8574 60.8257 61.1205L77.5229 70.5948L100 106.593C100 109.119 99.2294 114.803 96.1468 117.329C93.0917 119.833 88.1021 115.513 85.9295 112.977C87.1931 114.494 88.3631 118.133 83.3028 121.119C78.9985 123.658 75.8963 121.056 74.3737 118.66C74.8804 120.318 74.5606 122.893 71.1009 125.54C66.4771 129.076 61.4679 124.066 59.5413 121.119C60.8257 126.803 53.7615 127.434 49.9083 126.803C46.8257 126.297 39.2049 112.277 35.7798 105.33H30V66.174C38.9908 66.8056 44.7706 62.3836 49.9083 59.8574Z" fill="#A8D9DA" stroke="#179A9C" style="fill:#A8D9DA;fill:color(display-p3 0.6588 0.8510 0.8549);fill-opacity:1;stroke:#179A9C;stroke:color(display-p3 0.0902 0.6039 0.6118);stroke-opacity:1;" stroke-width="3"/>
<path d="M71 51.6874C82.6211 48.1675 99.8421 59.0205 107 64.8869V107H98.7895C92.6842 96.3146 79.7158 74.3153 76.6842 71.8011C72.8947 68.6584 71 72.4297 62.1579 80.6008C55.0842 87.1378 49.1053 79.5533 47 74.9439L71 51.6874Z" fill="#179A9C" style="fill:#179A9C;fill:color(display-p3 0.0902 0.6039 0.6118);fill-opacity:1;"/>
<path d="M0.523352 64.4828C0.241388 60.9901 2.99982 58 6.50389 58H25C28.3137 58 31 60.6863 31 64V108C31 111.314 28.3137 114 25 114H10.056C6.92948 114 4.32702 111.599 4.07543 108.483L0.523352 64.4828Z" fill="#179A9C" style="fill:#179A9C;fill:color(display-p3 0.0902 0.6039 0.6118);fill-opacity:1;"/>
<path d="M137.477 64.4828C137.759 60.9901 135 58 131.496 58H113C109.686 58 107 60.6863 107 64V108C107 111.314 109.686 114 113 114H127.944C131.071 114 133.673 111.599 133.925 108.483L137.477 64.4828Z" fill="#A8D9DA" style="fill:#A8D9DA;fill:color(display-p3 0.6588 0.8510 0.8549);fill-opacity:1;"/>
<path d="M22 44L68.2003 6L115 44" stroke="#179A9C" style="stroke:#179A9C;stroke:color(display-p3 0.0902 0.6039 0.6118);stroke-opacity:1;" stroke-width="9" stroke-linecap="round"/>
<circle cx="17.5" cy="103.5" r="4.5" fill="#A8D9DA" style="fill:#A8D9DA;fill:color(display-p3 0.6588 0.8510 0.8549);fill-opacity:1;"/>
<circle cx="119.5" cy="103.5" r="4.5" fill="#179A9C" style="fill:#179A9C;fill:color(display-p3 0.0902 0.6039 0.6118);fill-opacity:1;"/>
</svg>
