<svg width="88" height="88" viewBox="0 0 88 88" fill="none" xmlns="http://www.w3.org/2000/svg">
<path fill-rule="evenodd" clip-rule="evenodd" d="M65.9823 7.66211H22.9933C15.2352 7.66211 8.94531 13.9247 8.94531 21.6499V64.4567C8.94531 72.1819 15.2346 78.4445 22.9933 78.4445H38.9362L39.1035 78.714L44.4878 88.0002L49.8743 78.7103L50.0392 78.4445H65.9823C73.7404 78.4445 80.0303 72.1819 80.0303 64.4567V21.6505C80.0303 13.9253 73.741 7.66266 65.9823 7.66266V7.66211Z" fill="url(#paint0_radial_10451_20818)"/>
<path d="M65.9822 14.6211H22.9931C21.0419 14.6211 19.2864 15.4001 18.0012 16.6799C16.716 17.9597 15.9336 19.7077 15.9336 21.6507V64.4575C15.9336 66.4004 16.716 68.1485 18.0012 69.4283C19.2864 70.708 21.0419 71.4871 22.9931 71.4871H42.9814L44.4877 74.0845L45.994 71.4871H65.9822C67.9334 71.4871 69.6889 70.708 70.9741 69.4283C72.2593 68.1485 73.0417 66.4004 73.0417 64.4575V21.6512C73.0417 19.7083 72.2593 17.9602 70.9741 16.6805C69.6889 15.4007 67.9334 14.6216 65.9822 14.6216V14.6211Z" fill="url(#paint1_radial_10451_20818)"/>
<path d="M40.9235 46.0244C41.8222 44.6612 43.1328 43.1574 44.8547 41.5126C46.1178 40.3097 47.0447 39.2973 47.6385 38.4749C48.2312 37.6535 48.5278 36.7208 48.5278 35.6776C48.5278 34.1942 47.9627 33.0215 46.8346 32.1584C45.7054 31.2965 44.2035 30.865 42.3295 30.865C40.4554 30.865 38.9331 31.2558 37.5371 32.0382C36.1394 32.82 34.9629 33.9136 34.0074 35.3169L27.0625 31.0456C28.6697 28.4795 30.8409 26.4942 33.5767 25.0899C36.312 23.6866 39.5545 22.9844 43.3048 22.9844C47.7041 22.9844 51.2344 23.9677 53.8941 25.932C56.5533 27.8975 57.8826 30.6245 57.8826 34.1135C57.8826 35.7583 57.6246 37.2022 57.108 38.4447C56.5914 39.6882 55.9601 40.7412 55.2135 41.6032C54.4675 42.4662 53.501 43.4588 52.3156 44.581C50.8992 45.9047 49.8665 47.0175 49.2164 47.9196C48.5653 48.8222 48.2406 49.9153 48.2406 51.1983H39.5744C39.5744 49.1137 40.0237 47.3887 40.9235 46.0249V46.0244Z" fill="url(#paint2_radial_10451_20818)"/>
<path d="M40.0082 63.5801C38.9551 62.5178 38.4297 61.2249 38.4297 59.6997C38.4297 58.1745 38.9463 56.9025 39.9795 55.8797C41.0128 54.8568 42.3327 54.3457 43.9394 54.3457C45.546 54.3457 46.8665 54.8568 47.8997 55.8797C48.933 56.9025 49.4496 58.1762 49.4496 59.6997C49.4496 61.2232 48.9231 62.5178 47.8711 63.5801C46.818 64.643 45.5085 65.1745 43.9394 65.1745C42.3702 65.1745 41.0602 64.6436 40.0082 63.5801Z" fill="url(#paint3_radial_10451_20818)"/>
<path d="M84.0938 55.7644H83.6875V48.9473H84.0938V55.7644Z" fill="#006A7D"/>
<path d="M6.80754 72.5623C5.76218 70.4958 5.13418 68.2767 4.94176 65.967L5.34645 65.9335C5.53502 68.1916 6.14812 70.3602 7.17033 72.38L6.80809 72.5623H6.80754ZM5.28525 55.7256H4.87891V28.4577H5.28525V55.7256ZM83.6867 21.6669V21.651C83.6867 18.2504 82.7113 14.948 80.8659 12.1003L81.2072 11.8812C83.0951 14.7943 84.093 18.1724 84.093 21.651L83.6867 21.6669ZM76.2131 7.26125C73.2093 5.14095 69.6712 4.01986 65.9799 4.01986H49.6334V3.61523H65.9799C69.7556 3.61523 73.3752 4.76213 76.4479 6.93129L76.2131 7.26125ZM39.3639 4.01986H32.5177V3.61523H39.3639V4.01986Z" fill="#006A7D"/>
<path d="M85.0643 76.5561L84.7773 76.8418L87.7126 79.7646L87.9996 79.4789L85.0643 76.5561Z" fill="#006A7D"/>
<path d="M87.7126 76.5713L84.7773 79.4941L85.0643 79.7799L87.9996 76.857L87.7126 76.5713Z" fill="#006A7D"/>
<path d="M9.79866 -0.000568461L9.51172 0.285156L12.447 3.20801L12.734 2.92229L9.79866 -0.000568461Z" fill="#006A7D"/>
<path d="M12.447 -0.000980009L9.51172 2.92188L9.79866 3.2076L12.734 0.284745L12.447 -0.000980009Z" fill="#006A7D"/>
<path d="M1.55647 21.2175C0.698014 21.2175 0 20.5224 0 19.6676C0 18.8128 0.698565 18.1172 1.55647 18.1172C2.41438 18.1172 3.1135 18.8128 3.1135 19.6676C3.1135 20.5224 2.41493 21.2175 1.55647 21.2175ZM1.55647 18.5218C0.921864 18.5218 0.405796 19.0357 0.405796 19.6676C0.405796 20.2995 0.921864 20.8134 1.55647 20.8134C2.19108 20.8134 2.70715 20.2995 2.70715 19.6676C2.70715 19.0357 2.19108 18.5218 1.55647 18.5218Z" fill="#006A7D"/>
<path d="M74.0258 85.1101C73.1673 85.1101 72.4688 84.415 72.4688 83.5602C72.4688 82.7054 73.1673 82.0098 74.0258 82.0098C74.8842 82.0098 75.5822 82.7054 75.5822 83.5602C75.5822 84.415 74.8837 85.1101 74.0258 85.1101ZM74.0258 82.4144C73.3912 82.4144 72.8751 82.9283 72.8751 83.5602C72.8751 84.1921 73.3917 84.706 74.0258 84.706C74.6598 84.706 75.1764 84.1921 75.1764 83.5602C75.1764 82.9283 74.6604 82.4144 74.0258 82.4144Z" fill="#006A7D"/>
<defs>
<radialGradient id="paint0_radial_10451_20818" cx="0" cy="0" r="1" gradientUnits="userSpaceOnUse" gradientTransform="translate(16.8726 49.0837) scale(63.3621 63.0935)">
<stop offset="0.3" stop-color="#67C0C2"/>
<stop offset="1" stop-color="#3FADAF"/>
</radialGradient>
<radialGradient id="paint1_radial_10451_20818" cx="0" cy="0" r="1" gradientUnits="userSpaceOnUse" gradientTransform="translate(15.1512 49.1806) scale(62.0907 61.8274)">
<stop offset="0.3" stop-color="#179A9C"/>
<stop offset="1" stop-color="#0E5C5E"/>
</radialGradient>
<radialGradient id="paint2_radial_10451_20818" cx="0" cy="0" r="1" gradientUnits="userSpaceOnUse" gradientTransform="translate(21.7441 46.8435) scale(43.0883 42.9056)">
<stop offset="0.3" stop-color="#67C0C2"/>
<stop offset="1" stop-color="#3FADAF"/>
</radialGradient>
<radialGradient id="paint3_radial_10451_20818" cx="0" cy="0" r="1" gradientUnits="userSpaceOnUse" gradientTransform="translate(21.7474 46.8423) scale(43.0883 42.9056)">
<stop offset="0.3" stop-color="#67C0C2"/>
<stop offset="1" stop-color="#3FADAF"/>
</radialGradient>
</defs>
</svg>
