<svg width="33" height="28" viewBox="0 0 33 28" fill="none" xmlns="http://www.w3.org/2000/svg">
<path d="M12 0C10.1814 0 8.43723 0.737498 7.15127 2.05025C5.8653 3.36301 5.14286 5.14348 5.14286 7C5.14286 8.85652 5.8653 10.637 7.15127 11.9497C8.43723 13.2625 10.1814 14 12 14C13.8186 14 15.5628 13.2625 16.8487 11.9497C18.1347 10.637 18.8571 8.85652 18.8571 7C18.8571 5.14348 18.1347 3.36301 16.8487 2.05025C15.5628 0.737498 13.8186 0 12 0ZM3.444 15.75C2.99246 15.7479 2.54496 15.8369 2.1272 16.0119C1.70945 16.1868 1.32966 16.4443 1.00965 16.7695C0.689646 17.0948 0.435719 17.4813 0.262453 17.907C0.0891868 18.3326 -4.57177e-06 18.789 1.7576e-10 19.25C1.7576e-10 22.2092 1.428 24.4405 3.66 25.8948C5.85771 27.3245 8.82 28 12 28C15.18 28 18.1423 27.3245 20.34 25.8948C22.572 24.4423 24 22.2075 24 19.25C24 18.3217 23.6388 17.4315 22.9958 16.7751C22.3528 16.1187 21.4807 15.75 20.5714 15.75H3.444Z" fill="white"/>
<path opacity="0.2" d="M26.5 17.5215C25.5111 17.5215 24.5444 17.2282 23.7221 16.6788C22.8999 16.1294 22.259 15.3485 21.8806 14.4349C21.5022 13.5213 21.4031 12.5159 21.5961 11.546C21.789 10.5761 22.2652 9.68522 22.9645 8.98595C23.6637 8.28669 24.5546 7.81049 25.5245 7.61756C26.4945 7.42463 27.4998 7.52365 28.4134 7.90209C29.327 8.28053 30.1079 8.92139 30.6573 9.74364C31.2068 10.5659 31.5 11.5326 31.5 12.5215C31.5 13.1781 31.3707 13.8283 31.1194 14.4349C30.8681 15.0415 30.4998 15.5927 30.0355 16.057C29.5712 16.5213 29.02 16.8896 28.4134 17.1409C27.8068 17.3922 27.1566 17.5215 26.5 17.5215Z" fill="#636363"/>
<path d="M19.8539 19.8762L22.9827 16.7475C24.0724 17.6561 25.4705 18.1096 26.8861 18.0136C28.3017 17.9177 29.6258 17.2797 30.5829 16.2323C31.5401 15.1849 32.0566 13.8089 32.025 12.3904C31.9934 10.9719 31.4162 9.6202 30.4133 8.61648C29.4105 7.61277 28.0593 7.03432 26.6409 7.00148C25.2224 6.96864 23.8459 7.48393 22.7977 8.44016C21.7495 9.39638 21.1103 10.7199 21.0131 12.1354C20.9159 13.5509 21.3681 14.9494 22.2758 16.04L19.1464 19.1687C19.1 19.2152 19.0631 19.2703 19.038 19.331C19.0128 19.3917 18.9999 19.4568 18.9999 19.5225C18.9999 19.5882 19.0128 19.6532 19.038 19.7139C19.0631 19.7746 19.1 19.8298 19.1464 19.8762C19.1929 19.9227 19.248 19.9595 19.3087 19.9847C19.3694 20.0098 19.4345 20.0227 19.5002 20.0227C19.5659 20.0227 19.6309 20.0098 19.6916 19.9847C19.7523 19.9595 19.8075 19.9227 19.8539 19.8762ZM26.5002 8.02246C27.3902 8.02246 28.2602 8.28638 29.0002 8.78085C29.7403 9.27531 30.317 9.97812 30.6576 10.8004C30.9982 11.6227 31.0873 12.5275 30.9137 13.4004C30.7401 14.2733 30.3115 15.0751 29.6821 15.7044C29.0528 16.3338 28.251 16.7624 27.3781 16.936C26.5052 17.1096 25.6004 17.0205 24.7781 16.6799C23.9558 16.3393 23.253 15.7625 22.7586 15.0225C22.2641 14.2825 22.0002 13.4125 22.0002 12.5225C22.0015 11.3294 22.476 10.1856 23.3196 9.34194C24.1633 8.49831 25.3071 8.02378 26.5002 8.02246Z" fill="#EDEDED"/>
</svg>
