<svg width="140" height="57" viewBox="0 0 140 57" fill="none" xmlns="http://www.w3.org/2000/svg">
<path fill-rule="evenodd" clip-rule="evenodd" d="M20.2541 13.2031C19.3728 13.2031 18.5001 13.3729 17.6859 13.7027C16.8716 14.0325 16.1318 14.516 15.5086 15.1254C14.8854 15.7349 14.3911 16.4584 14.0538 17.2547C13.7165 18.051 13.543 18.9045 13.543 19.7663C13.543 21.0644 13.9366 22.3333 14.674 23.4126C15.4114 24.4919 16.4596 25.333 17.6859 25.8298C18.9121 26.3265 20.2615 26.4565 21.5633 26.2032C22.8651 25.95 24.0609 25.3249 24.9994 24.4071C25.938 23.4892 26.5771 22.3198 26.8361 21.0467C27.095 19.7736 26.9622 18.4539 26.4542 17.2547C25.9463 16.0554 25.0861 15.0304 23.9825 14.3093C22.8789 13.5881 21.5814 13.2031 20.2541 13.2031Z" fill="#AD3A10"/>
<path fill-rule="evenodd" clip-rule="evenodd" d="M127.102 24.5265C127.125 22.5077 127.925 20.4958 129.5 18.9553C131.1 17.3913 133.196 16.6093 135.292 16.6094V24.619H135.29V48.5493C135.29 50.5985 134.49 52.6478 132.892 54.2114C131.293 55.7749 129.197 56.5568 127.102 56.5568V48.5493V24.619V24.614L127.102 24.5265Z" fill="#AD3A10"/>
<path fill-rule="evenodd" clip-rule="evenodd" d="M124.026 19.1364C132.303 13.3422 136.912 9.89586 137.855 8.79729C138.798 7.69879 139.402 6.54843 139.666 5.34621C139.931 4.14391 140.038 2.99885 139.987 1.91101C139.937 0.823169 139.78 0.215361 139.515 0.0875838C139.251 -0.0401269 138.986 -0.0281723 138.722 0.123455C138.457 0.275149 136.592 1.52284 133.128 3.86654C129.663 6.21023 127.417 7.87697 126.391 8.86674C125.365 9.85652 124.569 10.9206 124.003 12.059C123.437 13.1974 123.146 14.3405 123.13 15.4883C123.115 16.636 123.217 17.8975 123.437 19.2728" fill="#AD3A10"/>
<path fill-rule="evenodd" clip-rule="evenodd" d="M121.55 53.6042C123.473 50.8759 123.476 45.5616 123.474 40.4673C123.473 35.3729 123.468 30.4985 123.458 27.7626C123.447 25.0269 123.433 24.4296 123.214 23.8399C122.996 23.2503 122.574 22.6682 122.106 22.3032C121.639 21.9382 121.125 21.7903 120.746 21.6917C120.368 21.5932 120.125 21.544 119.901 21.5254C119.678 21.5068 119.475 21.5184 114.907 21.5174C110.338 21.5165 101.405 21.5026 96.8825 21.4957C92.3598 21.4887 92.2477 21.4887 91.933 21.5282C91.6183 21.5675 91.101 21.6458 90.6336 21.9094C90.1664 22.173 89.749 22.6219 89.5239 23.0246C89.2989 23.4273 89.2663 23.7837 89.2487 29.3253C89.2311 34.8668 89.2285 45.5934 89.2194 51.0039C89.2102 56.4143 89.1949 56.5087 89.3975 56.5558C89.6001 56.6031 90.0206 56.6031 90.7117 56.4246C91.403 56.2462 92.3647 55.8895 93.2234 55.3069C94.082 54.7242 94.8374 53.9157 95.4964 52.9712C96.1554 52.0268 96.7177 50.9463 96.9483 47.0732C97.1789 43.1999 97.0775 36.5337 97.0753 33.1361C97.0733 29.7386 97.1704 29.6096 97.2942 29.5279C97.4182 29.4464 97.5688 29.4121 98.6838 29.3943C99.7988 29.3765 101.878 29.3752 104.003 29.3727C106.129 29.3697 108.3 29.3667 110.031 29.4962C111.762 29.6262 113.052 29.8901 113.916 30.3013C114.78 30.7126 115.218 31.2712 115.535 31.7921C115.852 32.3131 116.048 32.7963 116.149 33.3923C116.249 33.9882 116.254 34.6968 116.253 35.1132C116.25 35.5297 116.242 35.6539 116.155 35.7201C116.067 35.7862 115.899 35.7942 115.771 35.7917C115.644 35.7887 115.555 35.776 113.644 35.7578C111.732 35.7396 107.997 35.7161 105.831 35.7508C103.665 35.7854 103.069 35.878 102.682 36.0981C102.296 36.3182 102.119 36.6657 102.031 36.9012C101.943 37.1367 101.943 37.26 101.953 40.2516C101.963 43.2432 101.983 49.103 101.984 52.2197C101.985 55.3364 101.968 55.7099 102.049 55.9841C102.13 56.2582 102.309 56.4331 102.653 56.5214C102.997 56.6096 103.507 56.6112 104.991 56.6131C106.474 56.6151 108.932 56.6171 110.252 56.6181C111.571 56.6187 111.754 56.6179 113.767 56.5463C115.781 56.4748 119.626 56.3325 121.55 53.6042ZM116.103 42.6463C116.13 42.7172 116.137 42.8118 116.139 43.9279C116.141 45.0439 116.139 47.1812 115.178 48.2868C114.217 49.3924 112.296 49.4663 111.289 49.5007C110.281 49.5351 110.187 49.53 110.064 49.5312C109.941 49.5322 109.791 49.5402 109.661 49.5199C109.531 49.4999 109.423 49.4521 109.369 49.3589C109.314 49.2656 109.313 49.1269 109.318 48.0475C109.323 46.9679 109.333 44.9476 109.339 43.8923C109.344 42.8369 109.345 42.7465 109.374 42.6706C109.403 42.5948 109.462 42.5335 109.521 42.5037C109.581 42.4739 109.641 42.4754 110.69 42.4781C111.738 42.4811 113.775 42.4841 114.822 42.4851C115.868 42.4857 115.925 42.4831 115.977 42.5055C116.029 42.5279 116.076 42.5753 116.103 42.6463Z" fill="#AD3A10"/>
<path fill-rule="evenodd" clip-rule="evenodd" d="M84.4092 10.5469C84.4199 29.031 84.4058 38.4435 84.3671 38.7844C84.3284 39.1252 84.0931 40.9614 83.6611 44.2928C83.2291 47.6243 82.2111 50.1409 80.6071 51.8427C79.0031 53.5445 77.3945 54.7818 75.7812 55.5545C74.168 56.3273 71.4532 56.6931 67.6366 56.652C63.8201 56.6109 61.865 56.5672 61.7715 56.5211C61.678 56.4749 61.5752 56.2736 61.463 55.9171C61.3508 55.5607 61.3153 50.8414 61.3564 41.7593C61.3976 32.6772 61.419 27.5517 61.4207 26.3829C61.422 25.2142 61.4925 24.2321 61.632 23.4366C61.7712 22.6411 62.2753 21.599 63.1444 20.3104C64.0135 19.0217 65.1648 18.0911 66.5984 17.5187C68.0319 16.9463 68.86 16.6489 69.0826 16.6266C69.3053 16.6044 69.4164 16.6147 69.416 16.6575C69.4158 16.7003 69.3991 22.0205 69.3661 32.6179C69.333 43.2153 69.3288 48.7063 69.3535 49.0907C69.3782 49.4751 70.0774 49.4583 71.4513 49.0402C72.8251 48.622 73.8485 47.9674 74.5213 47.0763C75.1941 46.1851 75.6999 45.3134 76.0387 44.4611C76.3774 43.6087 76.5702 41.1441 76.617 37.0674C76.6637 32.9906 76.6496 29.0629 76.5747 25.2841C76.5 21.5053 76.5909 18.8474 76.8477 17.3104C77.1044 15.7733 77.7493 14.5018 78.7822 13.4957C79.8151 12.4897 80.8985 11.7504 82.0324 11.278C83.1663 10.8054 83.9507 10.5635 84.3856 10.5521" fill="#179A9C"/>
<path fill-rule="evenodd" clip-rule="evenodd" d="M56.3516 16.4922C55.8605 16.6156 55.1339 16.8299 54.1716 17.135C53.2093 17.4402 52.1848 18.1548 51.0984 19.279C50.012 20.4031 49.3123 21.572 48.9993 22.7855C48.6865 23.9991 48.544 25.5655 48.572 27.4848C48.6001 29.4041 48.6001 31.2001 48.572 32.8727C48.544 34.5452 47.708 35.3678 46.064 35.3404C44.4201 35.3131 42.9639 35.3063 41.6952 35.32C40.4265 35.3338 39.794 35.3509 39.7976 35.3714C39.801 35.392 39.8129 32.6827 39.8333 27.2434C39.8535 21.8041 39.8511 18.7194 39.8261 17.9896C39.8013 17.2597 39.7858 16.8399 39.7796 16.7302C39.7735 16.6205 39.4129 16.689 38.6979 16.9358C37.983 17.1826 37.098 17.6145 36.043 18.2314C34.9881 18.8483 33.9349 19.9073 32.8836 21.4086C31.8323 22.9097 31.327 25.2168 31.3676 28.3299C31.4083 31.443 31.4286 34.3841 31.4286 37.1535C31.4286 39.9227 31.2464 42.0203 30.882 43.4461C30.5175 44.8719 30.0397 46.0572 29.4486 47.0022C28.8575 47.9472 28.0783 48.6116 27.111 48.9955C26.1438 49.3793 25.3027 49.578 24.5877 49.5918C23.8728 49.6055 21.6298 49.6124 17.8588 49.6124C14.0878 49.6124 11.7607 49.5918 10.8776 49.5507C9.99441 49.5096 9.54149 49.2757 9.51888 48.849C9.49626 48.4223 9.48993 45.1159 9.49987 38.9297C9.50982 32.7435 9.51401 29.6195 9.51245 29.5576C9.51081 29.4957 9.45035 29.4545 9.33107 29.434C9.21179 29.4134 8.26023 29.6782 6.4764 30.2283C4.69257 30.7784 3.31701 31.7937 2.34975 33.2744C1.38249 34.755 0.758267 36.5325 0.477061 38.6069C0.195922 40.6814 0.0413503 43.1993 0.0133523 46.1606C-0.0147138 49.1218 0.00146572 51.5684 0.0618896 53.5005C0.122382 55.4327 0.149118 56.4347 0.142102 56.5067C0.135085 56.5787 0.217443 56.6112 0.389177 56.6044C0.560912 56.5975 4.72107 56.5889 12.8697 56.5786C21.0183 56.5683 26.401 56.6253 29.0177 56.7496C31.6343 56.8739 33.7417 56.2232 35.3398 54.7974C36.9379 53.3717 37.9794 52.1219 38.4643 51.0482C38.9492 49.9744 39.2933 48.8943 39.4966 47.8078C39.6998 46.7213 39.7912 45.544 39.7706 44.2758C39.75 43.0075 39.807 42.4032 39.9417 42.4628C40.0764 42.5222 40.9071 42.5452 42.4339 42.5315C43.9607 42.5179 45.8496 42.5108 48.1007 42.5102C50.3519 42.5096 51.9215 42.3054 52.8096 41.8975C53.6977 41.4897 54.4752 40.8878 55.1423 40.0918C55.8092 39.2958 56.1721 38.0585 56.2309 36.38C56.2897 34.7014 56.3244 31.6698 56.3351 27.2851C56.3459 22.9003 56.3512 19.5631 56.3512 17.2737" fill="#179A9C"/>
<path fill-rule="evenodd" clip-rule="evenodd" d="M40.1139 55.8819C40.5345 53.8529 41.1723 52.3929 42.0275 51.5017C42.8826 50.6106 43.7239 50.0727 44.5513 49.8881C45.3788 49.7034 47.2154 49.5974 50.0612 49.57C52.9069 49.5425 54.5927 49.5395 55.1184 49.561C55.6441 49.5824 55.9805 49.5962 56.1277 49.6022C56.2749 49.6082 56.3624 49.8063 56.3899 50.1967C56.4176 50.5869 56.1793 51.4643 55.675 52.8288C55.1707 54.1933 54.3789 55.1978 53.2994 55.8421C52.22 56.4865 50.054 56.7639 46.8013 56.6743C43.5487 56.5848 41.2568 56.5953 39.9258 56.7058" fill="#179A9C"/>
</svg>
