<svg width="6" height="21" viewBox="0 0 6 21" fill="none" xmlns="http://www.w3.org/2000/svg">
<path d="M0.746055 11.8728C0.855146 12.7334 1.03711 13.374 1.29196 13.7947C1.54651 14.2154 2.0018 14.4258 2.65785 14.4261C2.78092 14.4261 2.89136 14.4106 3.0009 14.3948C3.11135 14.4106 3.22044 14.4261 3.34305 14.4261C3.9979 14.4258 4.45319 14.2154 4.70894 13.7947C4.96318 13.374 5.14485 12.7334 5.25394 11.8728L5.83636 5.22947C5.94545 3.93447 6 3.00504 6 2.44117C6 1.67316 5.73659 1.07446 5.20977 0.645091C4.68084 0.215259 3.98602 0.000229121 3.12532 0C3.08024 0 3.04553 0.00790467 3.0018 0.0092794C2.95808 0.00790467 2.92291 0 2.87829 0C2.01668 0 1.32201 0.21503 0.79429 0.645091C0.266867 1.07469 0.00315551 1.6735 0.00315551 2.44152C0.00315551 3.00538 0.0577005 3.93481 0.166791 5.22981L0.74876 11.8728M3.01848 16.8521C2.18482 16.8526 1.47318 17.0535 0.883546 17.4549C0.294515 17.8582 0 18.346 0 18.9183C0 19.5667 0.29767 20.0753 0.893012 20.4439C1.48986 20.8137 2.18497 21 2.97791 21C3.78633 20.9995 4.49166 20.8168 5.09391 20.4518C5.69662 20.0865 5.99549 19.5754 5.99549 18.918C5.99549 18.3456 5.70744 17.8578 5.13133 17.4546C4.55612 17.0538 3.85154 16.8521 3.01668 16.8521" fill="#BE212F"/>
</svg>
