<svg width="80" height="80" viewBox="0 0 80 80" fill="none" xmlns="http://www.w3.org/2000/svg">
<rect width="80" height="80" rx="16" fill="#E5F5EC"/>
<path d="M57.9941 48.083C58.7624 47.4868 59.7807 47.9157 59.9463 48.8496L59.9551 59.4023C59.8643 59.9762 59.5488 60.2262 59.0732 60.4805V60.4795H48.1953C47.3683 60.1653 46.9689 59.277 47.5566 58.5205C47.6702 58.374 48.0708 58.0801 48.2363 58.0801H57.5537V48.7627C57.5537 48.5971 57.8477 48.1973 57.9941 48.083ZM19.001 48.7217C19.3152 47.8948 20.2035 47.4954 20.96 48.083C21.1064 48.1963 21.4004 48.5971 21.4004 48.7627V58.0801H30.7178C30.8833 58.0801 31.2829 58.374 31.3975 58.5205C31.9841 59.2781 31.5858 60.1653 30.7588 60.4795H19.8809C19.4235 60.2412 19.2382 60.057 19.001 59.5996V48.7217ZM30.8379 28.9268C31.7782 28.0498 33.2277 28.7561 32.9082 30.0361C32.7842 30.5329 32.3617 30.8046 32.085 31.2139C29.9201 34.4089 28.0474 40.3031 27.2129 44.0986C26.7802 46.0678 26.3412 48.2399 26.6787 50.2422C26.7759 50.3287 27.2299 49.8137 27.3154 49.7207C29.9814 46.8345 32.024 42.2044 34.1953 38.8428C34.6548 38.1321 35.5105 36.6999 36.2754 36.3643C37.3503 35.8931 38.3784 36.7358 38.0186 37.8662C37.5473 39.3451 36.7418 40.601 36.4629 42.2295C36.3657 42.7947 36.1015 43.9475 36.957 43.9307C38.3055 43.9039 40.697 40.3774 41.834 39.4424C42.4676 38.9209 43.3796 38.4946 44.1094 39.0908C44.9792 39.8014 44.1174 41.079 44.1943 42.0439C44.2843 43.1675 45.3172 42.4519 45.8535 42.1025C49.2984 39.8618 51.1077 37.595 55.4727 36.6045C56.3405 36.4079 58.3309 36.0659 59.1387 36.2988C60.3267 36.6408 60.1857 38.4537 58.8652 38.6377C57.9409 38.7659 57.104 38.7143 56.1113 38.9248C52.0821 39.7818 50.2108 42.1906 46.9873 44.1973C44.9433 45.4698 42.9364 45.559 41.9629 43.0762L41.9648 43.0732C41.9331 42.9901 42.0071 42.9373 41.8379 42.9639C40.4103 44.7056 38.1699 47.1278 35.6631 46.0967C34.662 45.6853 34.278 44.9134 33.998 43.9229C32.4583 46.2512 31.1546 49.0447 29.2793 51.123C27.2127 53.4128 24.7198 53.5444 24.208 50.0332C23.6171 45.9716 26.3009 37.8909 27.9443 34.0312C28.5342 32.6452 29.7694 29.9237 30.8379 28.9268ZM30.6318 19.5332C31.5666 19.699 31.9936 20.7172 31.3975 21.4854C31.2842 21.6317 30.8834 21.9258 30.7178 21.9258H21.4004V31.2432C21.4004 31.4087 21.1064 31.8083 20.96 31.9229C20.2024 32.5095 19.3151 32.1112 19.001 31.2842V20.4062H19C19.2532 19.9308 19.5034 19.6153 20.0781 19.5244L30.6318 19.5332ZM58.7988 19.5234C59.4335 19.5854 59.8449 19.9697 59.9561 20.6055L59.9346 31.2256H59.9336C59.7241 32.1199 58.7389 32.5008 57.9941 31.9238C57.8478 31.8105 57.5543 31.411 57.5537 31.2451V21.9268H48.2363C48.0707 21.9268 47.671 21.6327 47.5566 21.4863C46.9786 20.7416 47.3596 19.7565 48.2549 19.5469L58.7988 19.5234Z" fill="#0C9D61"/>
</svg>
