<svg width="80" height="80" viewBox="0 0 80 80" fill="none" xmlns="http://www.w3.org/2000/svg">
<rect width="80" height="80" rx="16" fill="#FFEBEE"/>
<path fill-rule="evenodd" clip-rule="evenodd" d="M80 80.0039H0V79.998H80V80.0039ZM30.168 18.8916C35.8537 11.8767 47.022 13.0741 51.1553 21.0752C52.6288 23.9281 52.6575 26.883 52.6094 30.0351C55.2561 30.7425 57.0536 33.0208 57.416 35.6963C58.476 35.5734 60.9203 36.0407 61.7295 35.3935C62.5757 34.7162 62.0867 32.7609 62.1934 31.7734C59.6395 31.0532 59.2676 27.476 61.6387 26.2236C64.498 24.7127 67.4443 28.1226 65.501 30.7256C65.0287 31.3571 64.4782 31.5564 63.8242 31.9336C63.7538 33.5886 64.1701 35.6911 62.5635 36.7607L62.5674 36.7646C62.3053 36.9388 61.3635 37.3152 61.0898 37.3154H57.4043V42.5498H60.0742C60.7731 39.7683 64.7003 39.4516 65.7881 42.123C67.4155 46.1194 61.2208 48.1792 60.0742 44.0439H57.4043V49.3847H61.623C61.836 49.385 62.719 49.9431 62.9092 50.1279C64.1957 51.3803 63.7207 53.2162 63.8232 54.8222C67.0351 55.4251 66.6736 60.3214 63.5332 60.6943C59.7143 61.1482 58.6737 55.9446 62.2148 54.7617C62.0558 53.5809 62.7521 51.3973 61.2129 50.9697C60.8303 50.8639 57.5675 50.8038 57.3955 50.9267C57.0236 53.3107 55.6385 55.3816 53.3721 56.3027C53.1757 56.3821 52.1199 56.7549 52.0088 56.7549H47.7373L47.5762 56.915V60.7607C47.5762 60.844 47.9438 61.3656 48.0508 61.4609C48.7507 62.086 50.545 61.6359 51.4629 61.7822C52.2975 59.0128 56.3318 58.8665 57.2393 61.6709C58.1625 64.5261 54.9675 66.8703 52.543 65.0869C51.92 64.6285 51.7254 64.0242 51.3535 63.3916C49.6612 63.2923 47.7191 63.7952 46.5684 62.1963C46.3878 61.9462 45.9736 61.0343 45.9736 60.7607V56.7558H40.9004L40.7402 56.916V59.5869C42.6228 60.2356 43.6115 62.2222 42.6445 64.0547C41.3526 66.5003 37.5618 65.9434 37.0156 63.206C36.6737 61.4899 37.6502 60.2708 39.1387 59.5869V56.7558H34.0645L33.9043 56.916V61.1884C33.904 61.3672 33.4124 62.1776 33.2607 62.3603C32.0629 63.8017 30.2742 63.2739 28.6318 63.3925C28.1574 64.3286 27.665 65.1791 26.6104 65.5371C23.6536 66.5394 21.2782 63.0578 23.2754 60.707C24.9017 58.7936 27.6905 59.5706 28.5283 61.7812C29.4975 61.6252 31.5404 62.1871 32.1377 61.2383C32.2029 61.1334 32.4092 60.6247 32.4092 60.5478V56.8633H28.8311C28.6933 56.8633 28.001 56.7464 27.8105 56.709C25.0024 56.1554 22.8932 53.7133 22.5684 50.8955C21.4849 51.0045 18.848 50.5205 18.0957 51.3603C17.4696 52.0602 17.9091 53.8438 17.7725 54.7607C18.5557 55.124 19.3448 55.6737 19.6846 56.5029C20.7659 59.138 18.0925 61.6553 15.5439 60.4297C13.0311 59.222 13.4363 55.3929 16.1641 54.8222C16.2666 53.2162 15.7916 51.3803 17.0781 50.1279C17.2684 49.943 18.1505 49.3848 18.3643 49.3847H22.583V44.1513H19.9658C19.0478 46.8492 15.1745 47.1674 14.1572 44.4052C12.6947 40.4336 18.743 38.4713 19.9131 42.5488H22.583V37.3144C21.3885 37.2076 19.9546 37.4597 18.791 37.3144C18.105 37.2289 17.122 36.6432 16.7256 36.0683C15.889 34.8535 16.2628 33.3193 16.1592 31.9345C15.2809 31.4826 14.4573 31.037 14.0918 30.0498C13.0137 27.1423 16.3305 24.6128 18.7871 26.5283C20.7041 28.0232 20.1198 31.1453 17.7871 31.7715C17.9185 33.0088 17.1792 35.3936 18.9219 35.6865C19.2945 35.7495 22.434 35.7725 22.5879 35.666C22.9405 33.5482 24.0007 31.7076 25.9004 30.6465C26.1599 30.5023 27.2165 30.1267 27.2666 29.9834C27.0892 25.8448 27.4998 22.1849 30.168 18.8916ZM54.1748 64.1015C56.3621 64.42 56.4082 60.7082 53.9561 61.2636C52.6492 61.5596 52.6233 63.876 54.1748 64.1015ZM26.9355 62.1758C26.7315 61.4032 25.9736 61.1287 25.2246 61.2675C24.7909 61.3477 24.2632 61.8237 24.1914 62.2617C23.7726 64.8165 27.5848 64.6342 26.9355 62.1758ZM40.3447 63.9912C42.0993 63.6311 41.6341 60.7479 39.6455 61.1572C37.9234 61.5112 38.352 64.4004 40.3447 63.9912ZM16.793 56.2431C15.0795 56.3792 15.0197 58.8558 16.5547 59.0976C18.9087 59.4673 18.851 56.0796 16.793 56.2431ZM62.9346 56.2383C61.0906 56.4522 61.2359 59.4416 63.4336 59.0957C65.1358 58.8275 64.7533 56.0277 62.9346 56.2383ZM50.5195 31.3291C43.5409 31.6817 36.1099 30.8598 29.1836 31.3652C26.4578 31.5639 24.6407 33.0376 24.1982 35.7793C24.5167 40.6017 23.727 46.0796 24.1865 50.8261C24.4291 53.3372 26.6737 55.1963 29.1484 55.2636C36.2371 54.8908 43.8078 55.7445 50.8398 55.2636C53.5315 55.0798 55.4322 53.4158 55.7998 50.7177C55.5188 45.9329 56.1807 40.709 55.8057 35.9765C55.5834 33.1685 53.2635 31.3228 50.5195 31.3291ZM39.8691 35.416C42.2272 35.3584 44.4179 37.0073 45.042 39.2617C45.7184 41.7034 44.6866 43.8928 42.6777 45.2851L44.3779 49.0039V49.0049C44.7615 49.9537 44.1271 51.0383 43.1377 51.1933C41.1908 51.4979 38.4686 51.0006 36.4404 51.1748C33.5709 50.2258 36.5521 46.9004 37.0801 45.164C36.2797 44.4802 35.5493 43.7578 35.1357 42.7597C33.7263 39.3638 36.1837 35.5057 39.8691 35.416ZM41.9531 43.8134C45.8384 41.1217 42.47 35.4712 38.3945 37.3711L38.3926 37.3681C36.1422 38.4175 35.6335 41.6257 37.4287 43.3525C37.8967 43.8023 38.9377 44.0534 38.9336 44.7392L36.791 49.5996H42.8799C42.7217 48.6015 40.6962 45.5553 40.7988 44.7763C40.8803 44.1613 41.5546 44.0879 41.9531 43.8134ZM16.9775 41.8633C15.036 41.8718 15.1471 44.7744 16.9775 44.7744C18.8526 44.7742 18.9209 41.8539 16.9775 41.8633ZM63.0137 41.8633C61.04 41.8536 61.1544 44.7744 63.0137 44.7744C64.8435 44.7739 64.9546 41.8723 63.0137 41.8633ZM64.0967 27.8486C62.792 26.5312 60.6371 28.6722 62.0986 30.0068C63.4375 31.2303 65.473 29.2377 64.0967 27.8486ZM17.8887 30.0029C19.3436 28.6726 17.2124 26.5094 15.8906 27.8447C14.5143 29.2349 16.5508 31.2264 17.8887 30.0029ZM50.0537 22.5049C46.5798 14.449 35.4573 13.5255 30.6572 20.8759C28.8386 23.6616 28.7598 26.6001 28.8848 29.8388H32.1963V26.4756C32.1963 22.009 37.0628 18.6578 41.3018 19.3994C44.0137 19.8738 47.5771 22.9275 47.5771 25.834V29.6797L47.7383 29.8398H50.8359C50.9883 29.7459 50.9829 29.6274 51.001 29.4717C51.2414 27.4223 50.8732 24.4069 50.0537 22.5049ZM46.083 26.8994C46.0828 22.3304 40.8417 19.4054 36.9062 21.6748C35.4552 22.5114 33.7999 24.6224 33.7998 26.3652V29.8369H45.9219L46.083 29.6767V26.8994Z" fill="#D92F32"/>
</svg>
