<svg width="48" height="43" viewBox="0 0 48 43" fill="none" xmlns="http://www.w3.org/2000/svg">
  <path d="M32.6667 34H7.33333C3.83522 34 1 31.4819 1 28.375V13.375H5.22222L20 4L34.7778 13.375H39V28.375C39 31.4819 36.1648 34 32.6667 34Z" fill="#FAFAFA"/>
  <path d="M36.2487 0H4.24986C2.03994 0 0.25 1.79032 0.25 4.00071V14.0025C0.25 16.2129 2.03994 18.0032 4.24986 18.0032H8.59371C9.65367 18.0032 10.6716 17.5811 11.4216 16.831L16.9854 11.266C18.7913 9.45967 21.7172 9.45167 23.5312 11.25L29.181 16.845C29.929 17.5871 30.9409 18.0032 31.9949 18.0032H36.2487C38.4587 18.0032 40.2486 16.2129 40.2486 14.0025V4.00071C40.2486 1.79032 38.4587 0 36.2487 0Z" fill="#AD3A10"/>
  <path d="M36.2487 0H4.24986C2.03994 0 0.25 1.79032 0.25 4.00071V14.0025C0.25 16.2129 2.03994 18.0032 4.24986 18.0032H8.59371C9.65367 18.0032 10.6716 17.5811 11.4216 16.831L16.9854 11.266C18.7913 9.45967 21.7172 9.45167 23.5312 11.25L29.181 16.845C29.929 17.5871 30.9409 18.0032 31.9949 18.0032H36.2487C38.4587 18.0032 40.2486 16.2129 40.2486 14.0025V4.00071C40.2486 1.79032 38.4587 0 36.2487 0Z" fill="#DDA692"/>
  <path d="M24 26H16V34H24V26Z" fill="#AD3A10"/>
  <path d="M24 26H16V34H24V26Z" fill="#DDA692"/>
  <path d="M20.2518 30.0024C22.4609 30.0024 24 28.2105 24 26.001C24 23.7914 22.2091 22.001 20 22.001C17.7909 22.001 16 23.7922 16 26.0017C16 28.2112 18.0428 30.0024 20.2518 30.0024Z" fill="#AD3A10"/>
  <path d="M20.2518 30.0024C22.4609 30.0024 24 28.2105 24 26.001C24 23.7914 22.2091 22.001 20 22.001C17.7909 22.001 16 23.7922 16 26.0017C16 28.2112 18.0428 30.0024 20.2518 30.0024Z" fill="#DDA692"/>
  <path d="M11.2479 28.0021H7.24802C6.69603 28.0021 6.24805 27.554 6.24805 27.0019V23.0012C6.24805 22.4491 6.69603 22.001 7.24802 22.001H11.2479C11.7999 22.001 12.2479 22.4491 12.2479 23.0012V27.0019C12.2479 27.554 11.7999 28.0021 11.2479 28.0021Z" fill="#AD3A10"/>
  <path d="M11.2479 28.0021H7.24802C6.69603 28.0021 6.24805 27.554 6.24805 27.0019V23.0012C6.24805 22.4491 6.69603 22.001 7.24802 22.001H11.2479C11.7999 22.001 12.2479 22.4491 12.2479 23.0012V27.0019C12.2479 27.554 11.7999 28.0021 11.2479 28.0021Z" fill="#DDA692"/>
  <path d="M34.6504 41.4999C40.5133 41.4999 45.7501 37.4902 45.7501 31.9985C45.7501 26.5068 40.5133 22.4971 34.6504 22.4971C28.7876 22.4971 23.5508 26.5068 23.5508 31.9985C23.5508 37.4902 28.7876 41.4999 34.6504 41.4999Z" fill="white"/>
  <path d="M34.6504 41.4999C40.5133 41.4999 45.7501 37.4902 45.7501 31.9985C45.7501 26.5068 40.5133 22.4971 34.6504 22.4971C28.7876 22.4971 23.5508 26.5068 23.5508 31.9985C23.5508 37.4902 28.7876 41.4999 34.6504 41.4999Z" stroke="#AD3A10" stroke-width="3"/>
  <path d="M34.6504 41.4999C40.5133 41.4999 45.7501 37.4902 45.7501 31.9985C45.7501 26.5068 40.5133 22.4971 34.6504 22.4971C28.7876 22.4971 23.5508 26.5068 23.5508 31.9985C23.5508 37.4902 28.7876 41.4999 34.6504 41.4999Z" stroke="black" stroke-opacity="0.2" stroke-width="3"/>
  <path d="M37.5061 33.6939C37.5061 31.1035 34.0754 31.4575 34.0754 30.1073C34.0754 29.3122 34.8254 29.2282 35.0845 29.2282C35.3401 29.2282 35.5669 29.2792 35.7589 29.3512C36.2101 29.5212 36.7453 29.3632 37.0309 29.0261C37.3969 28.594 37.2073 27.9869 36.6289 27.7699C36.3121 27.6509 35.9161 27.5549 35.4361 27.5168V27.1408C35.4361 26.7947 35.0989 26.5137 34.6838 26.5137C34.2686 26.5137 33.9314 26.7947 33.9314 27.1408V27.6489C32.6726 27.9989 31.8543 28.9591 31.8543 30.1883C31.8543 32.9068 35.2429 32.4157 35.2429 33.829C35.2429 34.101 35.0881 34.6941 34.2482 34.6941C33.875 34.6941 33.5522 34.6061 33.2894 34.4921C32.8442 34.298 32.291 34.4411 32.0067 34.7871L31.9767 34.8241C31.6479 35.2242 31.7811 35.7843 32.2862 36.0234C32.711 36.2244 33.2306 36.3804 33.8582 36.4354V36.8755C33.8582 37.2216 34.1954 37.5026 34.6106 37.5026C35.0257 37.5026 35.3629 37.2216 35.3629 36.8755V36.3224C36.7561 35.9673 37.5061 34.9092 37.5061 33.6939Z" fill="#AD3A10"/>
  <path d="M37.5061 33.6939C37.5061 31.1035 34.0754 31.4575 34.0754 30.1073C34.0754 29.3122 34.8254 29.2282 35.0845 29.2282C35.3401 29.2282 35.5669 29.2792 35.7589 29.3512C36.2101 29.5212 36.7453 29.3632 37.0309 29.0261C37.3969 28.594 37.2073 27.9869 36.6289 27.7699C36.3121 27.6509 35.9161 27.5549 35.4361 27.5168V27.1408C35.4361 26.7947 35.0989 26.5137 34.6838 26.5137C34.2686 26.5137 33.9314 26.7947 33.9314 27.1408V27.6489C32.6726 27.9989 31.8543 28.9591 31.8543 30.1883C31.8543 32.9068 35.2429 32.4157 35.2429 33.829C35.2429 34.101 35.0881 34.6941 34.2482 34.6941C33.875 34.6941 33.5522 34.6061 33.2894 34.4921C32.8442 34.298 32.291 34.4411 32.0067 34.7871L31.9767 34.8241C31.6479 35.2242 31.7811 35.7843 32.2862 36.0234C32.711 36.2244 33.2306 36.3804 33.8582 36.4354V36.8755C33.8582 37.2216 34.1954 37.5026 34.6106 37.5026C35.0257 37.5026 35.3629 37.2216 35.3629 36.8755V36.3224C36.7561 35.9673 37.5061 34.9092 37.5061 33.6939Z" fill="black" fill-opacity="0.2"/>
</svg>
